<svg id="visual" viewBox="0 0 960 540" width="960" height="540" xmlns="http://www.w3.org/2000/svg" xmlns:xlink="http://www.w3.org/1999/xlink" version="1.1"><rect x="0" y="0" width="960" height="540" fill="#ffffff"></rect><defs><linearGradient id="grad1_0" x1="43.8%" y1="0%" x2="100%" y2="100%"><stop offset="14.444444444444446%" stop-color="#99eb97" stop-opacity="1"></stop><stop offset="85.55555555555554%" stop-color="#99eb97" stop-opacity="1"></stop></linearGradient></defs><defs><linearGradient id="grad1_1" x1="43.8%" y1="0%" x2="100%" y2="100%"><stop offset="14.444444444444446%" stop-color="#99eb97" stop-opacity="1"></stop><stop offset="85.55555555555554%" stop-color="#cef6cb" stop-opacity="1"></stop></linearGradient></defs><defs><linearGradient id="grad1_2" x1="43.8%" y1="0%" x2="100%" y2="100%"><stop offset="14.444444444444446%" stop-color="#ffffff" stop-opacity="1"></stop><stop offset="85.55555555555554%" stop-color="#cef6cb" stop-opacity="1"></stop></linearGradient></defs><defs><linearGradient id="grad2_0" x1="0%" y1="0%" x2="56.3%" y2="100%"><stop offset="14.444444444444446%" stop-color="#99eb97" stop-opacity="1"></stop><stop offset="85.55555555555554%" stop-color="#99eb97" stop-opacity="1"></stop></linearGradient></defs><defs><linearGradient id="grad2_1" x1="0%" y1="0%" x2="56.3%" y2="100%"><stop offset="14.444444444444446%" stop-color="#cef6cb" stop-opacity="1"></stop><stop offset="85.55555555555554%" stop-color="#99eb97" stop-opacity="1"></stop></linearGradient></defs><defs><linearGradient id="grad2_2" x1="0%" y1="0%" x2="56.3%" y2="100%"><stop offset="14.444444444444446%" stop-color="#cef6cb" stop-opacity="1"></stop><stop offset="85.55555555555554%" stop-color="#ffffff" stop-opacity="1"></stop></linearGradient></defs><g transform="translate(960, 0)"><path d="M0 162C-28.6 157.9 -57.1 153.8 -81 140.3C-104.9 126.8 -124.1 103.9 -136.8 79C-149.6 54.1 -155.8 27 -162 0L0 0Z" fill="#e7fbe5"></path><path d="M0 108C-19 105.3 -38.1 102.5 -54 93.5C-69.9 84.5 -82.7 69.3 -91.2 52.7C-99.7 36 -103.9 18 -108 0L0 0Z" fill="#b4f1b1"></path><path d="M0 54C-9.5 52.6 -19 51.3 -27 46.8C-35 42.3 -41.4 34.6 -45.6 26.3C-49.9 18 -51.9 9 -54 0L0 0Z" fill="#99eb97"></path></g><g transform="translate(0, 540)"><path d="M0 -162C19.3 -142.4 38.6 -122.8 64.5 -111.7C90.4 -100.7 122.9 -98.2 140.3 -81C157.6 -63.8 159.8 -31.9 162 0L0 0Z" fill="#e7fbe5"></path><path d="M0 -108C12.9 -94.9 25.7 -81.8 43 -74.5C60.3 -67.1 82 -65.5 93.5 -54C105.1 -42.5 106.5 -21.3 108 0L0 0Z" fill="#b4f1b1"></path><path d="M0 -54C6.4 -47.5 12.9 -40.9 21.5 -37.2C30.1 -33.6 41 -32.7 46.8 -27C52.5 -21.3 53.3 -10.6 54 0L0 0Z" fill="#99eb97"></path></g></svg>