<?xml version="1.0" encoding="UTF-8" standalone="no"?><!DOCTYPE svg PUBLIC "-//W3C//DTD SVG 1.1//EN" "http://www.w3.org/Graphics/SVG/1.1/DTD/svg11.dtd"><svg width="100%" height="100%" viewBox="0 0 648 167" version="1.1" xmlns="http://www.w3.org/2000/svg" xmlns:xlink="http://www.w3.org/1999/xlink" xml:space="preserve" xmlns:serif="http://www.serif.com/" style="fill-rule:evenodd;clip-rule:evenodd;stroke-linecap:round;stroke-linejoin:round;stroke-miterlimit:1.5;"><path d="M645.5,15.46c0,-7.153 -5.807,-12.96 -12.96,-12.96l-617.08,0c-7.153,0 -12.96,5.807 -12.96,12.96l0,136.08c0,7.153 5.807,12.96 12.96,12.96l617.08,0c7.153,0 12.96,-5.807 12.96,-12.96l0,-136.08Z"/><clipPath id="_clip1"><path d="M645.5,15.46c0,-7.153 -5.807,-12.96 -12.96,-12.96l-617.08,0c-7.153,0 -12.96,5.807 -12.96,12.96l0,136.08c0,7.153 5.807,12.96 12.96,12.96l617.08,0c7.153,0 12.96,-5.807 12.96,-12.96l0,-136.08Z"/></clipPath><g clip-path="url(#_clip1)"><text x="320.332px" y="122.712px" style="font-family:'Inter-Regular', 'Inter';font-size:55.782px;fill:#fff;">A<tspan x="356.676px 384.457px 412.238px 443.349px 462.251px 476.553px 510.757px 529.341px 561.245px 579.671px " y="122.712px 122.712px 122.712px 122.712px 122.712px 122.712px 122.712px 122.712px 122.712px 122.712px ">sset Store</tspan></text><text x="148.082px" y="60.483px" style="font-family:'Inter-Regular', 'Inter';font-size:35.978px;fill:#fff;">Get it on t<tspan x="316.935px " y="60.483px ">h</tspan>e</text><g><g id="Logo"><g><path d="M126.7,102.738l0,-44.972l-39,-22.486l0,17.289l15.3,8.795c0.6,0.299 0.6,1.199 0,1.499l-18.2,10.493c-0.5,0.3 -1.2,0.3 -1.7,0l-18.2,-10.593c-0.6,-0.3 -0.6,-1.199 0,-1.499l15.3,-8.795l0,-17.289l-39,22.486l0,45.072l0,-0.2l0,0.2l15,-8.595l0,-17.689c0,-0.599 0.7,-1.099 1.3,-0.699l18.2,10.493c0.5,0.3 0.9,0.9 0.9,1.499l0,20.987c0,0.6 -0.7,1.1 -1.3,0.7l-15.3,-8.795l-15,8.595l39,22.486l39,-22.486l-15,-8.595l-15.3,8.795c-0.5,0.3 -1.3,-0.1 -1.3,-0.7l0,-20.987c0,-0.599 0.3,-1.199 0.9,-1.499l18.2,-10.493c0.5,-0.3 1.3,0.1 1.3,0.699l0,17.689l14.9,8.595Z" style="fill:#ccc;fill-rule:nonzero;"/><path d="M83.9,131.82l39,-22.486l-15,-8.595l-15.3,8.795c-0.5,0.3 -1.3,-0.1 -1.3,-0.7l0,-20.987c0,-0.599 0.3,-1.199 0.9,-1.499l18.2,-10.493c0.5,-0.3 1.3,0.1 1.3,0.699l0,17.689l15,8.595l0,-45.072l-42.8,24.685l0,49.369Z" style="fill:#a6a6a6;fill-rule:nonzero;"/><path d="M87.6,35.18l0,17.289l15.3,8.795c0.6,0.3 0.6,1.199 0,1.499l-18.2,10.493c-0.5,0.3 -1.2,0.3 -1.7,0l-18.1,-10.493c-0.6,-0.3 -0.6,-1.199 0,-1.499l15.3,-8.795l0,-17.289l-39,22.486l42.8,24.685l42.8,-24.685l-39.2,-22.486Z" style="fill:#fff;fill-rule:nonzero;"/><path d="M75.1,109.434l-15.3,-8.795l-15,8.595l39,22.486l0,-49.369l-42.7,-24.585l0,45.072l0,-0.2l0,0.2l15,-8.595l0,-17.689c0,-0.599 0.7,-1.099 1.3,-0.699l18.2,10.493c0.5,0.3 0.9,0.9 0.9,1.499l0,20.987c-0.1,0.5 -0.8,0.9 -1.4,0.6Z" style="fill:#ccc;fill-rule:nonzero;"/></g></g></g><g><g id="Logo1" serif:id="Logo"><g><path d="M149.2,108.734l0,-27.383l11.5,0l0,27.783c0,4.497 2.3,7.595 8,7.595c5.3,0 7.9,-3.198 7.9,-7.795l0,-27.583l11.5,0l0,27.383c0,10.694 -6.4,17.19 -19.4,17.19c-13,0 -19.5,-6.296 -19.5,-17.19Z" style="fill:#fff;fill-rule:nonzero;"/><path d="M193.4,91.845l10.2,0l0,4.497l0.2,0c2.5,-3.598 5.7,-5.497 10.3,-5.497c7.3,0 11.6,5.197 11.6,12.593l0,21.586l-10.6,0l0,-19.388c0,-3.498 -1.8,-5.896 -5.2,-5.896c-3.5,0 -5.8,2.898 -5.8,6.996l0,18.388l-10.6,0l0,-33.279l-0.1,0Z" style="fill:#fff;fill-rule:nonzero;"/><path d="M231.1,78.753l10.6,0l0,8.595l-10.6,0l0,-8.595Zm0,13.092l10.6,0l0,33.279l-10.6,0l0,-33.279Z" style="fill:#fff;fill-rule:nonzero;"/><path d="M250,116.33l0,-15.89l-4.4,0l0,-8.595l4.4,0l0,-10.494l10.3,0l0,10.494l6,0l0,8.595l-6,0l0,13.591c0,2.599 1.4,3.198 3.7,3.198c0.9,0 1.9,-0.1 2.3,-0.1l0,7.695c-0.9,0.3 -2.9,0.5 -5.8,0.5c-6.1,0.2 -10.5,-1.799 -10.5,-8.994Z" style="fill:#fff;fill-rule:nonzero;"/><path d="M272.9,127.823l3.6,0c3.1,0 4.4,-1.2 4.4,-3.498c0,-1.399 -0.6,-3.398 -2,-6.896l-9.8,-25.584l11.2,0l4.5,14.191c1,3.198 2.1,7.695 2.1,7.695l0.1,0c0,0 0.9,-4.397 1.9,-7.695l4.4,-14.191l10.6,0l-11.5,33.679c-2.7,7.795 -5.8,10.494 -12.5,10.494l-6.9,0l0,-8.195l-0.1,0Z" style="fill:#fff;fill-rule:nonzero;"/><g><path d="M318.4,94.443c-0.2,-0.499 -0.5,-0.999 -0.9,-1.399c-0.4,-0.4 -0.8,-0.699 -1.4,-0.899c-0.5,-0.2 -1.1,-0.3 -1.6,-0.3c-0.5,0 -1.1,0.1 -1.6,0.3c-0.5,0.2 -1,0.499 -1.4,0.899c-0.4,0.4 -0.7,0.8 -0.9,1.399c-0.2,0.5 -0.3,1.1 -0.3,1.599c0,0.6 0.1,1.1 0.3,1.599c0.2,0.5 0.5,1 0.9,1.399c0.4,0.4 0.8,0.7 1.4,0.9c0.5,0.2 1.1,0.3 1.6,0.3c0.5,0 1.1,-0.1 1.6,-0.3c0.5,-0.2 1,-0.5 1.4,-0.9c0.4,-0.399 0.7,-0.799 0.9,-1.399c0.2,-0.499 0.3,-1.099 0.3,-1.599c0,-0.499 -0.1,-1.099 -0.3,-1.599Zm-1.1,3.298c-0.3,0.5 -0.7,0.9 -1.2,1.199c-0.5,0.3 -1,0.4 -1.6,0.4c-0.6,0 -1.1,-0.1 -1.6,-0.4c-0.5,-0.299 -0.9,-0.699 -1.2,-1.199c-0.3,-0.499 -0.4,-0.999 -0.4,-1.599c0,-0.599 0.1,-1.099 0.4,-1.599c0.3,-0.5 0.7,-0.899 1.2,-1.199c0.5,-0.3 1,-0.4 1.6,-0.4c0.6,0 1.1,0.1 1.6,0.4c0.5,0.3 0.9,0.699 1.2,1.199c0.3,0.5 0.4,1 0.4,1.599c0,0.6 -0.1,1.1 -0.4,1.599Z" style="fill:#fff;fill-rule:nonzero;"/><path d="M316,96.142c0.1,-0.2 0.2,-0.4 0.2,-0.699c0,-0.3 -0.1,-0.5 -0.2,-0.7c-0.1,-0.2 -0.3,-0.3 -0.5,-0.4c-0.2,-0.1 -0.4,-0.1 -0.5,-0.1l-2,0l0,3.898l0.9,0l0,-1.299l0.9,0l0.7,1.299l0.9,0l-0.8,-1.499c0.1,-0.2 0.3,-0.4 0.4,-0.5Zm-2.1,-1.399l0.8,0c0.1,0 0.2,0 0.4,0.1c0.1,0.1 0.2,0.2 0.2,0.5c0,0.2 -0.1,0.399 -0.2,0.499c-0.1,0.1 -0.3,0.2 -0.4,0.2l-0.8,0l0,-1.299Z" style="fill:#fff;fill-rule:nonzero;"/></g></g></g></g></g><path d="M645.5,15.46c0,-7.153 -5.807,-12.96 -12.96,-12.96l-617.08,0c-7.153,0 -12.96,5.807 -12.96,12.96l0,136.08c0,7.153 5.807,12.96 12.96,12.96l617.08,0c7.153,0 12.96,-5.807 12.96,-12.96l0,-136.08Z" style="fill:none;stroke:#3d99f5;stroke-width:5px;"/></svg>